<svg xmlns="http://www.w3.org/2000/svg" xmlns:xlink="http://www.w3.org/1999/xlink" viewBox="17234 13835 234 227">
  <defs>
    <style>
      .cls-1 {
        clip-path: url(#clip-Artboard_21);
      }

      .cls-2 {
        fill: url(#linear-gradient);
      }

      .cls-3 {
        fill: #fff;
      }
    </style>
    <linearGradient id="linear-gradient" x1="1" x2="0" y2="1" gradientUnits="objectBoundingBox">
      <stop offset="0" stop-color="#ffbd00"/>
      <stop offset="1" stop-color="#ff7600"/>
    </linearGradient>
    <clipPath id="clip-Artboard_21">
      <rect x="17234" y="13835" width="234" height="227"/>
    </clipPath>
  </defs>
  <g id="Artboard_21" data-name="Artboard – 21" class="cls-1">
    <rect class="cls-3" x="17234" y="13835" width="234" height="227"/>
    <g id="Group_100" data-name="Group 100" transform="matrix(0.985, -0.174, 0.174, 0.985, 17233.74, 13892.946)">
      <path id="Subtraction_11" data-name="Subtraction 11" class="cls-2" d="M-17199.992-13081.633h-168.016c-.266-13.87-10.354-25.153-22.49-25.153q-.252,0-.5.006v-120.072c.168,0,.336.007.5.007,12.137,0,22.227-11.284,22.49-25.154h168.016c.266,13.8,9.926,24.847,21.994,25.147v120.072c-12.068.3-21.729,11.346-21.994,25.146h0v0Z" transform="translate(17389.842 13241.801)"/>
      <g id="Group_94" data-name="Group 94" transform="matrix(0.999, -0.035, 0.035, 0.999, -36.147, -10.614)">
        <path id="Path_81" data-name="Path 81" class="cls-3" d="M114.328,74.662l.857-2.962c1.02-3.524.641-6.782-1.072-9.176a9.317,9.317,0,0,0-7.388-3.654L46.338,58.1a1.2,1.2,0,0,1-.95-.506,1.229,1.229,0,0,1-.129-1.09,1.609,1.609,0,0,1,1.4-1.072l60.947-.773c7.229-.331,15.056-6.2,17.8-13.352l3.476-9.082a2.1,2.1,0,0,0,.137-.772,2.04,2.04,0,0,0-.043-.429,39.694,39.694,0,0,0-76.319-4.1A17.863,17.863,0,0,0,24.647,45.64,25.373,25.373,0,0,0,.269,74.689a1.182,1.182,0,0,0,1.163,1.018l111.484.013c.011,0,.021,0,.032-.005A1.468,1.468,0,0,0,114.328,74.662Z" transform="translate(55.116 46.522)"/>
        <path id="Path_82" data-name="Path 82" class="cls-3" d="M16.152,0c-.56,0-1.117.016-1.672.043A.934.934,0,0,0,14.218.1a.962.962,0,0,0-.608.641l-2.375,8.2c-1.02,3.524-.641,6.78,1.072,9.173a9.31,9.31,0,0,0,7.388,3.654l12.873.773a1.173,1.173,0,0,1,.918.5,1.226,1.226,0,0,1,.135,1.1,1.612,1.612,0,0,1-1.4,1.072l-13.376.773c-7.262.334-15.088,6.2-17.83,13.352L.048,41.858a.713.713,0,0,0,.635.967c.012,0,.023,0,.036,0H46.744a1.228,1.228,0,0,0,1.187-.886A33.031,33.031,0,0,0,16.152,0Z" transform="translate(173.409 79.413)"/>
      </g>
    </g>
  </g>
</svg>
