<svg xmlns="http://www.w3.org/2000/svg" viewBox="9565.797 6218.544 71.639 90.169">
  <defs>
    <style>
      .cls-1 {
        fill: #4c4c4c;
      }

      .cls-2 {
        fill: #ccc;
      }
    </style>
  </defs>
  <g id="Group_67" data-name="Group 67" transform="translate(-8275.203 -2722.753)">
    <path id="Path_73" data-name="Path 73" class="cls-1" d="M71.533,73.479a69.688,69.688,0,0,1-.376,7.941c-.564,4.648-3.124,7.32-7.79,8.242a26.476,26.476,0,0,1-5.175.47q-11.205.028-22.373.038t-22.373-.038a26.476,26.476,0,0,1-5.175-.47c-4.667-.922-7.226-3.594-7.79-8.242a69.691,69.691,0,0,1-.376-7.941C.068,63.054.312,52.611.011,42.187a20.178,20.178,0,0,1,6.341-15.75c1.693-1.675,3.406-3.387,3.067-6.3-3.067-.527-3.839-2.71-3.707-5.57.094-2.371-.038-4.761.019-7.15A7.619,7.619,0,0,1,7.068,2.691C8.347,1.167,10,1.035,11.885.771A104.654,104.654,0,0,1,26.054.056Q30.936,0,35.819,0t9.766.056A104.655,104.655,0,0,1,59.754.771c1.882.263,3.538.4,4.817,1.919a7.619,7.619,0,0,1,1.336,4.723c.056,2.39-.075,4.779.019,7.15.132,2.86-.64,5.043-3.707,5.57-.339,2.917,1.374,4.629,3.067,6.3a20.177,20.177,0,0,1,6.341,15.75C71.326,52.611,71.571,63.054,71.533,73.479Z" transform="translate(17841 8941.298)"/>
    <g id="Group_61" data-name="Group 61" transform="translate(17849.066 8983.314)">
      <path id="Path_65" data-name="Path 65" class="cls-2" d="M37.957,24.788l.284-.983a3.483,3.483,0,0,0-.356-3.046,3.093,3.093,0,0,0-2.453-1.213l-20.048-.256a.4.4,0,0,1-.315-.168.408.408,0,0,1-.043-.362.534.534,0,0,1,.466-.356l20.234-.257a7.227,7.227,0,0,0,5.909-4.433L42.788,10.7a.7.7,0,0,0,.046-.256.678.678,0,0,0-.014-.142A13.178,13.178,0,0,0,17.482,8.938a5.931,5.931,0,0,0-9.3,6.214A8.424,8.424,0,0,0,.089,24.8a.392.392,0,0,0,.386.338l37.013,0,.011,0A.487.487,0,0,0,37.957,24.788Z"/>
      <path id="Path_66" data-name="Path 66" class="cls-2" d="M246.636,67.086c-.186,0-.371.005-.555.014a.31.31,0,0,0-.087.019.319.319,0,0,0-.2.213L245,70.055a3.482,3.482,0,0,0,.356,3.046,3.091,3.091,0,0,0,2.453,1.213l4.274.257a.39.39,0,0,1,.3.165.407.407,0,0,1,.045.364.535.535,0,0,1-.465.356l-4.441.257a7.229,7.229,0,0,0-5.919,4.433l-.321.838a.237.237,0,0,0,.211.321h15.292a.408.408,0,0,0,.394-.294,10.966,10.966,0,0,0-10.551-13.925Z" transform="translate(-202.001 -56.166)"/>
    </g>
  </g>
</svg>
