<svg xmlns="http://www.w3.org/2000/svg" xmlns:xlink="http://www.w3.org/1999/xlink" viewBox="17841 8940.298 99.643 125.416">
  <defs>
    <style>
      .cls-1 {
        fill: url(#linear-gradient);
      }

      .cls-2 {
        fill: #fff;
      }
    </style>
    <linearGradient id="linear-gradient" x1="0.9" x2="0" y2="1" gradientUnits="objectBoundingBox">
      <stop offset="0" stop-color="#ffe200"/>
      <stop offset="1" stop-color="#ff7600"/>
    </linearGradient>
  </defs>
  <g id="Group_63" data-name="Group 63" transform="translate(0 -1)">
    <path id="Path_73" data-name="Path 73" class="cls-1" d="M99.5,102.2a96.929,96.929,0,0,1-.523,11.045c-.785,6.464-4.345,10.181-10.835,11.463a36.826,36.826,0,0,1-7.2.654q-15.585.039-31.118.052T18.7,125.363a36.827,36.827,0,0,1-7.2-.654c-6.491-1.282-10.05-5-10.835-11.463A96.932,96.932,0,0,1,.147,102.2C.094,87.7.435,73.177.016,58.677a28.065,28.065,0,0,1,8.82-21.906C11.191,34.442,13.573,32.061,13.1,28c-4.266-.733-5.339-3.769-5.156-7.747.131-3.3-.052-6.621.026-9.945.052-2.251.366-4.763,1.858-6.569,1.78-2.12,4.083-2.3,6.7-2.67A145.563,145.563,0,0,1,36.238.079Q43.029,0,49.821,0T63.4.079a145.563,145.563,0,0,1,19.707.995c2.617.366,4.92.55,6.7,2.67,1.492,1.806,1.806,4.318,1.858,6.569.079,3.324-.1,6.648.026,9.945.183,3.978-.89,7.014-5.156,7.747-.471,4.057,1.911,6.438,4.266,8.768a28.065,28.065,0,0,1,8.82,21.906C99.207,73.177,99.547,87.7,99.5,102.2Z" transform="translate(17841 8941.298)"/>
    <g id="Group_61" data-name="Group 61" transform="translate(17852.219 8999.738)">
      <path id="Path_65" data-name="Path 65" class="cls-2" d="M52.794,34.477l.4-1.368a4.845,4.845,0,0,0-.495-4.237,4.3,4.3,0,0,0-3.412-1.687L21.4,26.829a.552.552,0,0,1-.439-.234.568.568,0,0,1-.06-.5.743.743,0,0,1,.648-.495l28.144-.357a10.051,10.051,0,0,0,8.218-6.166l1.605-4.194a.972.972,0,0,0,.063-.357.942.942,0,0,0-.02-.2,18.33,18.33,0,0,0-35.242-1.895,8.249,8.249,0,0,0-12.934,8.644A11.717,11.717,0,0,0,.124,34.49a.546.546,0,0,0,.537.47l51.481.006.015,0A.678.678,0,0,0,52.794,34.477Z"/>
      <path id="Path_66" data-name="Path 66" class="cls-2" d="M248.732,67.086c-.259,0-.516.007-.772.02a.431.431,0,0,0-.121.026.444.444,0,0,0-.281.3l-1.1,3.787a4.842,4.842,0,0,0,.495,4.236,4.3,4.3,0,0,0,3.412,1.687l5.944.357a.542.542,0,0,1,.424.23.566.566,0,0,1,.062.506.744.744,0,0,1-.647.495l-6.177.357a10.055,10.055,0,0,0-8.233,6.166l-.446,1.166a.329.329,0,0,0,.293.447l.017,0h21.253a.567.567,0,0,0,.548-.409,15.253,15.253,0,0,0-14.675-19.368Z" transform="translate(-186.649 -51.898)"/>
    </g>
  </g>
</svg>
